<svg width="128" height="128" viewBox="0 0 128 128" fill="none" xmlns="http://www.w3.org/2000/svg">
  <defs>
    <linearGradient id="windGradient" x1="20" y1="18" x2="108" y2="110" gradientUnits="userSpaceOnUse">
      <stop stop-color="#38A8B5"/>
      <stop offset="1" stop-color="#1F7C84"/>
    </linearGradient>
    <linearGradient id="waveGradient" x1="29" y1="72" x2="100" y2="72" gradientUnits="userSpaceOnUse">
      <stop stop-color="#DFF7FA"/>
      <stop offset="1" stop-color="#FFFFFF"/>
    </linearGradient>
  </defs>
  <rect x="10" y="10" width="108" height="108" rx="28" fill="url(#windGradient)"/>
  <circle cx="64" cy="64" r="10" fill="#EAFBFD"/>
  <path d="M64 24C73 24 77 31 74 40L68.5 56.5C67.3 60 64.1 62.3 60.6 62.3H54.5C49.8 62.3 46.6 57.5 48.6 53.3L57.1 35.6C58.6 28.4 60.7 24 64 24Z" fill="#F5FEFF" fill-opacity="0.96"/>
  <path d="M98 54.5C101.8 62.7 97.8 69.8 89 71.7L72 75.4C68.4 76.2 64.8 74.7 62.8 71.7L59.3 66.7C56.6 62.8 58.8 57.3 63.3 56.3L82.2 52.2C88.7 48.8 94.7 48.4 98 54.5Z" fill="#F5FEFF" fill-opacity="0.92"/>
  <path d="M41.5 97C32.9 100.1 26.3 95.4 24.4 86.6L20.7 69.8C19.9 66.2 21.3 62.4 24.4 60.4L29.3 57.2C33.4 54.5 38.7 56.7 39.8 61.2L43.8 80C47 86.7 47.6 93.7 41.5 97Z" fill="#F5FEFF" fill-opacity="0.9"/>
  <path d="M29 79C37.5 71.4 46.3 67.6 55.3 67.6C68.4 67.6 75.6 78.8 86.4 78.8C91.3 78.8 95.9 76.8 100 72.8" stroke="url(#waveGradient)" stroke-width="6" stroke-linecap="round"/>
  <path d="M30 92C38.2 84.5 46.5 80.7 54.9 80.7C67.3 80.7 74.2 91 84.3 91C88.7 91 92.8 89.4 96.8 86.2" stroke="#B8EDF3" stroke-width="4" stroke-linecap="round" opacity="0.9"/>
</svg>
